<?xml version="1.0" encoding="utf-8"?>
<!-- Generator: Adobe Illustrator 16.0.0, SVG Export Plug-In . SVG Version: 6.00 Build 0)  -->
<!DOCTYPE svg PUBLIC "-//W3C//DTD SVG 1.1//EN" "http://www.w3.org/Graphics/SVG/1.1/DTD/svg11.dtd">
<svg version="1.1" xmlns="http://www.w3.org/2000/svg" xmlns:xlink="http://www.w3.org/1999/xlink" x="0px" y="0px"
	 width="244.9995px" height="60px" viewBox="0 0 244.9995 60" enable-background="new 0 0 244.9995 60" xml:space="preserve">
<g id="Layer_1">
	<g>
		<path d="M34.5986,49.1035H27.459l-5.3999-19.1396l-5.6997,19.1396H9.2197L0.52,19.1045h7.5l5.2197,20.519l5.5796-20.519h6.4199
			l5.5195,20.519l5.3398-20.519h7.5L34.5986,49.1035z"/>
		<path d="M48.4004,14.4248V7.165H55.54v7.2598H48.4004z M48.4004,49.1035v-29.999H55.54v29.999H48.4004z"/>
		<path d="M63.4004,49.1035V6.7451h7.3193v42.3584H63.4004z"/>
		<path d="M78.4004,49.1035V6.7451h7.3193v42.3584H78.4004z"/>
		<path d="M100.54,19.1045v2.6997c1.1997-1.2598,3.6597-3.5996,8.2197-3.5996c1.9199,0,6.1797,0.3599,9.5996,4.3799
			c1.5596,1.8599,4.0195,5.7598,4.0195,11.7593c0,1.6201-0.1196,6.1201-2.9995,10.1396c-3.54,4.98-8.3999,5.52-10.6797,5.52
			c-1.7998,0-4.9199-0.3604-8.1597-3.3599v12.2393h-7.1997V19.1045H100.54z M107.6196,25.1045
			c-5.0996,0-7.1997,4.6797-7.1997,8.8193c0,5.0996,2.52,9.2397,7.3799,9.2397c2.8198,0,7.1997-1.6802,7.1997-9.1797
			C114.9995,27.7441,111.0996,25.1045,107.6196,25.1045z"/>
		<path d="M145.9595,49.1035l-0.1802-2.3403c-1.98,1.5601-5.1597,3.0601-8.8198,3.0601c-6.8398,0-10.9194-4.1396-10.9194-9.1797
			c0-6.5396,4.98-9.1196,10.6797-10.1396c4.4995-0.8398,7.3198-1.5596,9.2397-2.2197c0-2.2798-0.6602-4.5-5.1602-4.5
			c-5.4595,0-6.0596,2.9399-6.0596,4.5l-7.3198-0.4199c0.1201-1.98,0.54-9.6597,13.1396-9.6597
			c8.8193,0,12.5991,3.2397,12.5991,8.5195v17.5195c0,2.2798,0.1201,2.9399,1.3203,4.8599H145.9595z M145.9595,34.1641
			c-1.2002,0.5996-2.9399,1.2598-5.7002,1.6797c-3.2998,0.48-6.5996,1.1401-6.5996,4.1396c0,1.98,1.3198,3.6602,4.9199,3.6602
			c3.2998,0,7.3799-1.6802,7.3799-5.46V34.1641z"/>
		<path d="M180.8188,49.1035v-3.0601c-1.5,1.3799-4.5,3.7798-9.7197,3.7798c-4.98,0-7.4399-2.1602-8.6396-3.96
			c-1.6201-2.3999-1.7402-5.1597-1.7402-7.9194V19.1045h7.2598v17.2793c0,2.8799,0.7202,6.6597,5.8799,6.6597
			c3.48,0,5.2798-2.2798,5.8198-3.3599c1.0801-2.0996,1.1401-4.9199,1.1401-7.1997V19.1045h7.1997v29.999H180.8188z"/>
		<path d="M195.8789,49.1035V6.7451h7.3198v42.3584H195.8789z"/>
	</g>
	<g>
		<g>
			<path d="M234.71,24.4688c-0.647,0.1992-1.418,0.2988-2.0146,0.2988c-1.3682,0-2.2886-0.2241-3.1099-3.0596l-1.3428-4.6021
				l-2.4629,7.3628h-4.1294l5.0747-12.064l-0.1489-0.4482c-0.5479-1.5415-0.7715-2.2632-1.8911-2.2632
				c-0.522,0-1.0195,0.1245-1.5171,0.2485V6.957c0.2241-0.0747,1.2188-0.3232,1.791-0.3232c2.7114,0,3.4824,0.8208,4.4775,3.731
				l3.4326,10.0005c0.2236,0.6211,0.4478,1.1436,1.0693,1.1436h0.7715V24.4688z"/>
		</g>
		<g>
			<path d="M228.0049,32.7632c-9.0308,0-16.3774-7.3472-16.3774-16.3774s7.3467-16.377,16.3774-16.377
				c9.0303,0,16.377,7.3467,16.377,16.377S237.0352,32.7632,228.0049,32.7632z M228.0049,3.0088
				c-7.3765,0-13.3774,6.001-13.3774,13.377c0,7.3765,6.001,13.3774,13.3774,13.3774c7.376,0,13.377-6.001,13.377-13.3774
				C241.3818,9.0098,235.3809,3.0088,228.0049,3.0088z"/>
		</g>
	</g>
</g>
<g id="Layer_2">
</g>
<g id="Layer_3">
</g>
</svg>
